<?xml version="1.0" encoding="UTF-8"?>
<svg xmlns="http://www.w3.org/2000/svg" viewBox="0 0 956.69 943.89">
  <defs>
    <style>
      .cls-1 {
        fill: #fff;
      }

      .cls-1, .cls-2, .cls-3, .cls-4, .cls-5 {
        stroke: #666;
        stroke-miterlimit: 10;
      }

      .cls-1, .cls-4 {
        stroke-width: .75px;
      }

      .cls-2 {
        fill: none;
        stroke-width: 2.61px;
      }

      .cls-6 {
        letter-spacing: -.02em;
      }

      .cls-7 {
        font-family: SegoeScript, 'Segoe Script';
        font-size: 16px;
      }

      .cls-8 {
        fill: #00004d;
      }

      .cls-3 {
        fill: #e9b386;
      }

      .cls-4 {
        fill: #f2f2f2;
      }

      .cls-9, .cls-5 {
        fill: #a67c52;
      }
    </style>
  </defs>
  <g id="Layer_11" data-name="Layer 11">
    <path class="cls-5" d="M615.85,87.83c0-2.19,1.72-3.96,3.85-3.96h213.17c2.13,0,3.85,1.77,3.85,3.96v21.69c0,2.19-1.72,3.96-3.85,3.96"/>
    <rect class="cls-3" x="614.41" y="86.16" width="219.78" height="28.62" rx="3.83" ry="3.83"/>
  </g>
  <g id="back-stand">
    <path class="cls-3" d="M775.31,120.28l37.98-7.1,142.86,763.86-9.46,7.45"/>
    <rect class="cls-5" x="856.03" y="115.8" width="19.27" height="777.13" transform="translate(-77.97 167.74) rotate(-10.59)"/>
    <path class="cls-3" d="M630.67,141.8l38.25,5.45-104.99,736.36-11.31,3.79"/>
    <rect class="cls-5" x="585.81" y="145.94" width="19.27" height="743.84" transform="translate(79.06 -78.87) rotate(8.11)"/>
    <path class="cls-5" d="M869.12,942.1l10.44-3.84-28-439.44c-9.93.11-19.86.22-29.8.32"/>
    <rect class="cls-3" x="835.75" y="502.84" width="19.27" height="440.35" transform="translate(-44.26 55.22) rotate(-3.65)"/>
    <path class="cls-5" d="M574.47,497.98l38.45,3.75-42.76,438.93-10.92,2.12"/>
    <rect class="cls-3" x="561.27" y="501.86" width="19.27" height="441.03" transform="translate(72.74 -51.96) rotate(5.56)"/>
    <path class="cls-5" d="M703.34,203.31h37.4c1.94,0,3.52-1.7,3.52-3.81V5.33c0-1.93-1.33-3.55-3.1-3.78l-8.19-1.05"/>
    <rect class="cls-3" x="714.48" y=".5" width="22.17" height="202.08" rx="3.97" ry="3.97"/>
    <path class="cls-5" d="M697.08,250.07h44.46s0-202.07,0-202.07l-12.27-1.45"/>
    <rect class="cls-3" x="706.94" y="46.54" width="22.17" height="202.08"/>
    <ellipse class="cls-5" cx="714.1" cy="71.86" rx="5.12" ry="3.19"/>
    <circle class="cls-3" cx="712.18" cy="71.86" r="3.19"/>
  </g>
  <g id="empty-canvas">
    <path class="cls-4" d="M564.02,115.59c0-.46.05-2.93,2.06-4.92,1.27-1.26,3.03-2.04,4.98-2.04h295.69c3.89,0,7.04,3.12,7.04,6.96v428.76c0,3.85-3.15,6.96-7.04,6.96"/>
    <rect class="cls-1" x="562.48" y="113.18" width="303.25" height="438.13" rx="6.89" ry="6.89"/>
  </g>
  <g id="holder-extra">
    <rect class="cls-9" x="813.21" y="99.95" width="7.49" height="20.77" transform="translate(504.03 -652.33) rotate(60)"/>
    <rect class="cls-9" x="812.2" y="93" width="10.48" height="20.77" transform="translate(920.82 -714.05) rotate(90)"/>
    <path class="cls-5" d="M545.96,543.86c0-2.36,1.82-4.28,4.06-4.28h319.71c2.24,0,4.06,1.92,4.06,4.28v14.18c0,2.36-1.82,4.28-4.06,4.28"/>
    <path class="cls-5" d="M545.96,577.75c0-2.47,1.82-4.47,4.06-4.47h319.71c2.24,0,4.06,2,4.06,4.47v14.83c0,2.47-1.82,4.47-4.06,4.47"/>
    <path class="cls-5" d="M539.93,763.76c0-2.39,1.82-4.32,4.07-4.32h320.11c2.25,0,4.07,1.94,4.07,4.32v14.33c0,2.39-1.82,4.32-4.07,4.32"/>
    <path class="cls-5" d="M540.68,797.38c0-2.44,1.82-4.42,4.06-4.42h319.37c2.24,0,4.06,1.98,4.06,4.42v14.65c0,2.44-1.82,4.42-4.06,4.42"/>
    <path class="cls-5" d="M598.62,95.99c0-2.19,1.72-3.96,3.85-3.96h213.17c2.13,0,3.85,1.77,3.85,3.96v21.69c0,2.19-1.72,3.96-3.85,3.96"/>
  </g>
  <g id="holder">
    <rect class="cls-5" x="552.09" y="559.72" width="309.96" height="27.12" rx="4.43" ry="4.43"/>
    <rect class="cls-3" x="545.45" y="542.12" width="326.3" height="21.48" rx="4.04" ry="4.04"/>
    <rect class="cls-3" x="545.45" y="576.09" width="326.3" height="21.48" rx="4.04" ry="4.04"/>
    <rect class="cls-5" x="546.57" y="778.97" width="309.96" height="27.12" rx="4.43" ry="4.43"/>
    <rect class="cls-3" x="539.93" y="761.37" width="326.3" height="21.48" rx="4.04" ry="4.04"/>
    <rect class="cls-3" x="539.93" y="795.35" width="326.3" height="21.48" rx="4.04" ry="4.04"/>
    <rect class="cls-3" x="597.18" y="94.31" width="219.78" height="28.62" rx="3.83" ry="3.83"/>
  </g>
  <g id="score-lines">
    <line class="cls-2" x1="850.99" y1="199.52" x2="577.22" y2="199.52"/>
    <line class="cls-2" x1="850.99" y1="206.92" x2="577.22" y2="206.92"/>
    <line class="cls-2" x1="850.99" y1="214.33" x2="577.22" y2="214.33"/>
    <line class="cls-2" x1="850.99" y1="221.73" x2="577.22" y2="221.73"/>
    <line class="cls-2" x1="850.99" y1="229.13" x2="577.22" y2="229.13"/>
    <line class="cls-2" x1="850.99" y1="285.8" x2="577.22" y2="285.8"/>
    <line class="cls-2" x1="850.99" y1="293.2" x2="577.22" y2="293.2"/>
    <line class="cls-2" x1="850.99" y1="300.61" x2="577.22" y2="300.61"/>
    <line class="cls-2" x1="850.99" y1="308.01" x2="577.22" y2="308.01"/>
    <line class="cls-2" x1="850.99" y1="315.42" x2="577.22" y2="315.42"/>
    <line class="cls-2" x1="850.99" y1="372.08" x2="577.22" y2="372.08"/>
    <line class="cls-2" x1="850.99" y1="379.49" x2="577.22" y2="379.49"/>
    <line class="cls-2" x1="850.99" y1="386.89" x2="577.22" y2="386.89"/>
    <line class="cls-2" x1="850.99" y1="394.3" x2="577.22" y2="394.3"/>
    <line class="cls-2" x1="850.99" y1="401.7" x2="577.22" y2="401.7"/>
    <line class="cls-2" x1="850.99" y1="458.37" x2="577.22" y2="458.37"/>
    <line class="cls-2" x1="850.99" y1="465.77" x2="577.22" y2="465.77"/>
    <line class="cls-2" x1="850.99" y1="473.18" x2="577.22" y2="473.18"/>
    <line class="cls-2" x1="850.99" y1="480.58" x2="577.22" y2="480.58"/>
    <line class="cls-2" x1="850.99" y1="487.98" x2="577.22" y2="487.98"/>
  </g>
  <g id="treble-clefs">
    <path class="cls-8" d="M591.96,221.67c-4.85,1.48-5.59-2.78-4.02-6.12,1.52-3.53,5.04-2.82,6.91-.83,1.47,1.18,2.7,2.83,2.72,4.79-.04,3.51-3.28,6.97-6.82,6.88-5.3-.51-9.86-6.02-8.62-11.38.64-3.48,4.19-7.07,6.44-8.31,0,0,1.71-1.46,1.71-1.46,5.08-4.37,6.34-11.4.14-15.42-.28-.17-.6-.33-.76-.34-.17.02-.04-.02-.18.12-.23.35-.37,1.15-.42,1.86-.36,3.63.59,8.05,1.18,11.66,1.04,6.29,1.99,12.59,2.75,18.92.33,3.79,1.33,8.28.65,12.08-.63,3.84-4.01,3.93-5.78.7,2.01,1.07,3.95,2.24,4.38-.97.52-3.84-.16-7.76-.49-11.67-.69-6.31-1.51-12.62-2.61-18.87-.51-3.17-1.38-6.25-1.68-9.47-.07-1.82-.37-3.4.65-5.2,1.7-2.14,3.9.56,4.76,2.05,1.78,2.78,2.8,6.04,2.31,9.36-.47,3.34-2.37,6.47-4.82,8.73-2.47,1.82-4.98,4.1-6.13,6.86-.9,2.04-.6,4.66.65,6.55,2.07,3.59,7.13,5.51,10.01,1.7,2.26-2.8,1.81-5.85-1.22-7.77-2.07-1.68-3.42-1.4-4.35,1.13-1.29,2.81-.37,4.13,2.66,4.44h0Z"/>
    <path class="cls-8" d="M591.96,309.68c-4.85,1.48-5.59-2.78-4.02-6.12,1.52-3.53,5.04-2.82,6.91-.83,1.47,1.18,2.7,2.83,2.72,4.79-.04,3.51-3.28,6.97-6.82,6.88-5.3-.51-9.86-6.02-8.62-11.38.64-3.48,4.19-7.07,6.44-8.31,0,0,1.71-1.46,1.71-1.46,5.08-4.37,6.34-11.4.14-15.42-.28-.17-.6-.33-.76-.34-.17.02-.04-.02-.18.12-.23.35-.37,1.15-.42,1.86-.36,3.63.59,8.05,1.18,11.66,1.04,6.29,1.99,12.59,2.75,18.92.33,3.79,1.33,8.28.65,12.08-.63,3.84-4.01,3.93-5.78.7,2.01,1.07,3.95,2.24,4.38-.97.52-3.84-.16-7.76-.49-11.67-.69-6.31-1.51-12.62-2.61-18.87-.51-3.17-1.38-6.25-1.68-9.47-.07-1.82-.37-3.4.65-5.2,1.7-2.14,3.9.56,4.76,2.05,1.78,2.78,2.8,6.04,2.31,9.36-.47,3.34-2.37,6.47-4.82,8.73-2.47,1.82-4.98,4.1-6.13,6.86-.9,2.04-.6,4.66.65,6.55,2.07,3.59,7.13,5.51,10.01,1.7,2.26-2.8,1.81-5.85-1.22-7.77-2.07-1.68-3.42-1.4-4.35,1.13-1.29,2.81-.37,4.13,2.66,4.44h0Z"/>
    <path class="cls-8" d="M591.96,395.97c-4.85,1.48-5.59-2.78-4.02-6.12,1.52-3.53,5.04-2.82,6.91-.83,1.47,1.18,2.7,2.83,2.72,4.79-.04,3.51-3.28,6.97-6.82,6.88-5.3-.51-9.86-6.02-8.62-11.38.64-3.48,4.19-7.07,6.44-8.31,0,0,1.71-1.46,1.71-1.46,5.08-4.37,6.34-11.4.14-15.42-.28-.17-.6-.33-.76-.34-.17.02-.04-.02-.18.12-.23.35-.37,1.15-.42,1.86-.36,3.63.59,8.05,1.18,11.66,1.04,6.29,1.99,12.59,2.75,18.92.33,3.79,1.33,8.28.65,12.08-.63,3.84-4.01,3.93-5.78.7,2.01,1.07,3.95,2.24,4.38-.97.52-3.84-.16-7.76-.49-11.67-.69-6.31-1.51-12.62-2.61-18.87-.51-3.17-1.38-6.25-1.68-9.47-.07-1.82-.37-3.4.65-5.2,1.7-2.14,3.9.56,4.76,2.05,1.78,2.78,2.8,6.04,2.31,9.36-.47,3.34-2.37,6.47-4.82,8.73-2.47,1.82-4.98,4.1-6.13,6.86-.9,2.04-.6,4.66.65,6.55,2.07,3.59,7.13,5.51,10.01,1.7,2.26-2.8,1.81-5.85-1.22-7.77-2.07-1.68-3.42-1.4-4.35,1.13-1.29,2.81-.37,4.13,2.66,4.44h0Z"/>
    <path class="cls-8" d="M591.96,484.28c-4.85,1.48-5.59-2.78-4.02-6.12,1.52-3.53,5.04-2.82,6.91-.83,1.47,1.18,2.7,2.83,2.72,4.79-.04,3.51-3.28,6.97-6.82,6.88-5.3-.51-9.86-6.02-8.62-11.38.64-3.48,4.19-7.07,6.44-8.31,0,0,1.71-1.46,1.71-1.46,5.08-4.37,6.34-11.4.14-15.42-.28-.17-.6-.33-.76-.34-.17.02-.04-.02-.18.12-.23.35-.37,1.15-.42,1.86-.36,3.63.59,8.05,1.18,11.66,1.04,6.29,1.99,12.59,2.75,18.92.33,3.79,1.33,8.28.65,12.08-.63,3.84-4.01,3.93-5.78.7,2.01,1.07,3.95,2.24,4.38-.97.52-3.84-.16-7.76-.49-11.67-.69-6.31-1.51-12.62-2.61-18.87-.51-3.17-1.38-6.25-1.68-9.47-.07-1.82-.37-3.4.65-5.2,1.7-2.14,3.9.56,4.76,2.05,1.78,2.78,2.8,6.04,2.31,9.36-.47,3.34-2.37,6.47-4.82,8.73-2.47,1.82-4.98,4.1-6.13,6.86-.9,2.04-.6,4.66.65,6.55,2.07,3.59,7.13,5.51,10.01,1.7,2.26-2.8,1.81-5.85-1.22-7.77-2.07-1.68-3.42-1.4-4.35,1.13-1.29,2.81-.37,4.13,2.66,4.44h0Z"/>
  </g>
  <g id="text">
    <text class="cls-7" transform="translate(589.87 148.31) scale(1.3 1)"><tspan x="0" y="0">The </tspan><tspan class="cls-6" x="36.91" y="0">P</tspan><tspan x="49" y="0">ainted Orchestra</tspan></text>
  </g>
</svg>