<?xml version="1.0" encoding="UTF-8"?>
<svg xmlns="http://www.w3.org/2000/svg" viewBox="0 0 956.69 943.89">
  <defs>
    <style>
      .cls-1 {
        fill: #00bf07;
      }

      .cls-2 {
        fill: #f62aff;
      }

      .cls-3 {
        fill: #d1ae84;
        stroke: #8c6239;
        stroke-miterlimit: 10;
        stroke-width: 2px;
      }

      .cls-4 {
        fill: #0075ff;
      }

      .cls-5 {
        fill: #fcff4d;
      }

      .cls-6 {
        fill: #f7931e;
      }

      .cls-7 {
        fill: #ed1c24;
      }
    </style>
  </defs>
  <g id="palette">
    <path class="cls-3" d="M467.52,429.2c-46.88,12.59-72.56,11.1-72.56,11.1-35.41-6.39-8.19-29.29-8.19-29.29,35.42-26.39,57.93-37.3,57.93-37.3,48.03-28.55,18.77-57.95,18.77-57.95-62-94.5-209.68-106.99-329.84-27.9S-33.7,507.66,28.3,602.16c62,94.5,207.84,104.11,329.84,27.9,140.46-87.74,148.46-157.39,148.46-157.39,5.3-43.38-39.08-43.47-39.08-43.47ZM330.78,349.73c-4.98-11.91,3.48-26.8,18.89-33.26,15.41-6.46,31.94-2.05,36.92,9.86,4.98,11.91-3.48,26.8-18.89,33.26-15.41,6.46-31.94,2.05-36.92-9.86Z"/>
  </g>
  <g id="color-spots">
    <path class="cls-4" d="M211.45,564.78c-3.03-4.85-6.1-9.81-7.48-15.36-1.38-5.56-.82-11.92,2.85-16.3,2.7-3.22,6.71-5,10.64-6.44,7.21-2.64,15.82-4.35,22.11.08,5.27,3.71,7.58,10.96,13.36,13.79,3.56,1.75,7.75,1.44,11.68.95,8.44-1.05,16.86-2.77,25.37-2.59,8.51.18,17.35,2.49,23.49,8.42s8.75,16.02,4.41,23.39c-5.21,8.86-18.48,11.86-20.91,21.87-.66,2.7-.37,5.54.09,8.28,1.37,8.2,4.23,16.35,3.24,24.6-1.2,10-8.08,18.67-16.63,23.89s-18.62,7.37-28.57,8.31c-10.31.98-21.9.28-29.17-7.15-5.11-5.22-7.05-12.78-11.34-18.7-3.52-4.85-8.64-8.51-14.35-10.25-2.95-.9-6.12-1.33-8.67-3.07-2.1-1.43-3.57-3.6-4.95-5.74-4.19-6.47-8.21-13.28-9.68-20.86s.05-16.16,5.61-21.48c6.58-6.29,16.67-6.51,25.75-6.36"/>
    <path class="cls-7" d="M255.47,260.01c-6.35-2.25-10.1-8.78-16.98-9.62-7.14-.87-13.85,4.84-17.89,10.63s-7.14,12.48-13.31,16.51c-5.95,3.88-13.82,4.6-19.44,8.89-4.98,3.8-7.21,9.64-9.04,15.15-1.64,4.94-3.17,10.15-1.91,14.94,1.92,7.34,10.15,11.82,18.6,12.52s17.12-1.65,25.46-4.17c5.3-1.6,10.91-3.31,16.11-2.27,7.13,1.42,11.84,7.68,19.11,8.64,3.78.5,7.76-.53,11.46-1.88,14.37-5.27,26.26-15.47,36.07-26.53,3.73-4.2,7.3-8.73,8.76-13.81,2.71-9.42-2.37-18.58-8.55-25.81-3.1-3.62-6.62-7.08-11.25-9.04-5.68-2.41-12.56-2.32-19.01-.9s-12.58,4.07-18.66,6.7"/>
    <path class="cls-5" d="M412.86,554.25c7.35-1.36,13.92-7.83,18.23-15.41s6.73-16.23,9.09-24.73c.76-2.72,1.52-5.65.85-8.22-.62-2.39-2.36-3.99-4.07-5.39-5.93-4.86-12.39-8.88-19.22-11.94,2.58-4.02,2.84-9.43,1.52-13.76-1.32-4.33-4-7.74-6.87-10.72-3.99-4.13-8.46-7.63-13.29-10.39-.9-.51-1.88-1.01-2.92-.81-1,.2-1.9,1.01-2.63,1.92-6.09,7.49-3.41,20.26-9.31,27.96-7.35,9.58-20.91,3.32-29.82,10.76-4.47,3.74-6.72,10.09-8.6,16.05-3.67,11.59-7.06,23.47-7.63,35.44-.34,7.05.38,14.23,3.33,19.93,4.1,7.93,11.85,11.9,19.35,15.07,5.47,2.31,11.18,4.42,17.23,3.98s12.55-3.92,15.87-10.3c1.65-3.17,2.7-7.19,5.5-8.86,4.05-2.42,9.16,1.83,12.73-1.59,2.02-1.94,2.31-5.31,2.41-8.23"/>
    <path class="cls-2" d="M137.59,571.25c-3.08-3.75-6.16-7.51-9.24-11.26-1.82-2.22-4.41-4.65-7.29-3.61-3.28,1.19-4.48,6.25-7.88,6.72-1.9.26-3.44-1.11-5.11-1.88-3.63-1.67-8.09-.48-12.07.93-6.64,2.35-13.12,5.28-19.34,8.73-3.97,2.2-8.11,4.93-9.8,9.11-1.97,4.86.09,10.26,3.52,13.76s8.05,5.58,12.33,8.02c3.22,1.83,6.61,4.44,6.62,8.27.02,3.39-2.62,6.32-4.43,9.33-1.46,2.42-2.46,5.09-2.92,7.81-.13.77-.21,1.61.15,2.27.29.52.81.86,1.31,1.17,16.33,10.22,32.66,20.43,49,30.65,2.36,1.48,4.85,2.99,7.72,3.12,3.94.17,7.68-2.29,11.06-4.65,7.47-5.2,15.27-10.76,19.47-18.78,2.7-5.15,3.68-10.88,4.51-16.5.69-4.67,1.3-9.4.71-13.98s-2.53-9.04-6.15-11.7c-2.92-2.14-6.67-2.94-9.84-4.74-4.02-2.28-7-6.19-8.16-10.73-.7-2.74-.76-5.65-1.4-8.41s-2.02-5.49-4.55-6.69-6.33-.14-7.39,2.62"/>
    <path class="cls-1" d="M51.54,441.29c-1.46-6.33-3.96-13.47-9.35-13.26-6.05.24-10.72,9.37-13.78,17.03-2.88,7.22-5.76,14.44-8.64,21.66-1.7,4.27-3.46,8.83-3.27,13.14.28,6.25,4.44,9.82,7.24,14.28,3.63,5.81,5.13,14.02,4.08,22.43-.84,6.71-3.22,13.85-2.03,19.91.71,3.6,2.63,6.35,4.91,8.32,5.57,4.83,13.27,5.41,20.74,3.46,7.48-1.95,14.85-6.24,22.06-10.73,7.76-4.83,15.44-9.94,23.13-15.05,3.73-2.48,7.55-5.05,10.61-8.97,5.43-6.96,7.46-17.38,5.91-25.54s-6.26-14.16-11.98-17.54c-4.08-2.41-8.88-3.79-11.58-8.31-4.07-6.81-1.91-18.07-3.99-26.6-2.02-8.3-8.43-13.49-15.61-12.63s-14.71,7.71-18.34,16.69"/>
    <path class="cls-6" d="M161.45,376.35c-1.69-10.36-11.94-19.6-23.98-21.6s-24.86,3.39-29.99,12.62c-1.91,3.44-2.93,7.42-6.13,10.03-6.71,5.48-18.24,1.9-27.25,4.09-1.53.37-3.02.94-4.13,1.89-1.5,1.29-2.14,3.13-2.64,4.92-1.62,5.79-1.98,12.75,3.03,17.17,3.22,2.84,7.91,3.94,12.36,4.82,11.92,2.35,23.99,4.05,36.09,5.07,1.91.16,3.87.32,5.63,1.03,1.83.74,3.31,2.02,4.57,3.4,3.49,3.82,5.51,8.42,8.21,12.67,2.7,4.25,6.47,8.41,11.77,10.02,3.07.93,6.37.92,9.58.89,11.69-.1,23.37-.21,35.06-.31,3.54-.03,7.15-.07,10.42-1.11,3.25-1.02,5.94-2.95,8.48-4.93,3.29-2.57,6.49-5.36,8.35-8.85,2.48-4.65,2.35-10.07,2.18-15.27-.61-18.11-1.23-36.26-3.8-54.32-.38-2.67-.9-5.53-3.04-7.58-1.36-1.3-3.25-2.12-5.18-2.62-5.55-1.45-11.55-.42-16.51,1.83s-9.04,5.65-12.86,9.16c-2.33,2.14-4.64,4.37-7.62,5.81-4.79,2.31-12,3.48-12.31,8.25"/>
  </g>
</svg>